<svg width="64" height="64" viewBox="0 0 64 64" fill="none" xmlns="http://www.w3.org/2000/svg">
  <!-- Simulation: Virtual world with robot inside (Gazebo) -->

  <!-- 3D Box - simulation environment -->
  <path d="M32 8 L56 20 L56 48 L32 60 L8 48 L8 20 Z" fill="none" stroke="#1a1a1a" stroke-width="2"/>
  <path d="M32 8 L32 36" stroke="#1a1a1a" stroke-width="1.5"/>
  <path d="M8 20 L32 32" stroke="#1a1a1a" stroke-width="1.5"/>
  <path d="M56 20 L32 32" stroke="#1a1a1a" stroke-width="1.5"/>

  <!-- Grid on floor -->
  <line x1="14" y1="44" x2="32" y2="54" stroke="#666" stroke-width="0.5"/>
  <line x1="26" y1="40" x2="44" y2="50" stroke="#666" stroke-width="0.5"/>
  <line x1="20" y1="50" x2="38" y2="40" stroke="#666" stroke-width="0.5"/>
  <line x1="32" y1="54" x2="50" y2="44" stroke="#666" stroke-width="0.5"/>

  <!-- Robot inside simulation (simplified) -->
  <rect x="26" y="34" width="12" height="14" rx="2" fill="#76b900"/>
  <!-- Robot head -->
  <rect x="28" y="28" width="8" height="6" rx="1" fill="#76b900"/>
  <!-- Robot eyes -->
  <circle cx="30" cy="31" r="1" fill="#1a1a1a"/>
  <circle cx="34" cy="31" r="1" fill="#1a1a1a"/>
  <!-- Robot wheels -->
  <circle cx="28" cy="50" r="3" fill="#1a1a1a" stroke="#76b900" stroke-width="1"/>
  <circle cx="36" cy="50" r="3" fill="#1a1a1a" stroke="#76b900" stroke-width="1"/>

  <!-- "Virtual" indicator waves -->
  <path d="M48 12 Q52 16 48 20" stroke="#76b900" stroke-width="1.5" fill="none"/>
  <path d="M52 10 Q58 16 52 22" stroke="#76b900" stroke-width="1" fill="none" opacity="0.6"/>
</svg>