<svg width="300" height="300" viewBox="0 0 300 300" fill="none" xmlns="http://www.w3.org/2000/svg">
  <!-- Background glow effect -->
  <defs>
    <radialGradient id="glow" cx="50%" cy="50%" r="50%">
      <stop offset="0%" stop-color="#76b900" stop-opacity="0.3"/>
      <stop offset="100%" stop-color="#76b900" stop-opacity="0"/>
    </radialGradient>
    <filter id="shadow" x="-20%" y="-20%" width="140%" height="140%">
      <feDropShadow dx="0" dy="4" stdDeviation="8" flood-color="#76b900" flood-opacity="0.4"/>
    </filter>
  </defs>

  <!-- Glow circle -->
  <circle cx="150" cy="150" r="140" fill="url(#glow)"/>

  <!-- Humanoid Robot Body -->
  <g filter="url(#shadow)">
    <!-- Robot Torso -->
    <rect x="110" y="130" width="80" height="90" rx="10" fill="#1a1a1a" stroke="#76b900" stroke-width="2"/>

    <!-- Chest panel details -->
    <rect x="125" y="145" width="50" height="30" rx="4" fill="#242424" stroke="#76b900" stroke-width="1"/>
    <circle cx="135" cy="155" r="3" fill="#76b900"/>
    <circle cx="150" cy="155" r="3" fill="#76b900"/>
    <circle cx="165" cy="155" r="3" fill="#76b900"/>
    <rect x="130" y="163" width="40" height="6" rx="2" fill="#333"/>
    <line x1="135" y1="166" x2="165" y2="166" stroke="#76b900" stroke-width="1"/>

    <!-- Robot Head -->
    <rect x="115" y="70" width="70" height="55" rx="8" fill="#1a1a1a" stroke="#76b900" stroke-width="2"/>

    <!-- Face visor -->
    <rect x="125" y="80" width="50" height="25" rx="4" fill="#0a0a0a" stroke="#76b900" stroke-width="1"/>

    <!-- Eyes -->
    <circle cx="140" cy="92" r="6" fill="#76b900">
      <animate attributeName="opacity" values="1;0.5;1" dur="2s" repeatCount="indefinite"/>
    </circle>
    <circle cx="160" cy="92" r="6" fill="#76b900">
      <animate attributeName="opacity" values="1;0.5;1" dur="2s" repeatCount="indefinite"/>
    </circle>
    <circle cx="140" cy="92" r="3" fill="#fff" opacity="0.7"/>
    <circle cx="160" cy="92" r="3" fill="#fff" opacity="0.7"/>

    <!-- Antenna -->
    <line x1="150" y1="70" x2="150" y2="55" stroke="#76b900" stroke-width="3"/>
    <circle cx="150" cy="50" r="6" fill="#76b900">
      <animate attributeName="r" values="6;8;6" dur="1.5s" repeatCount="indefinite"/>
    </circle>

    <!-- Robot Neck -->
    <rect x="135" y="125" width="30" height="10" rx="2" fill="#333" stroke="#76b900" stroke-width="1"/>

    <!-- Left Arm -->
    <rect x="80" y="135" width="25" height="50" rx="6" fill="#1a1a1a" stroke="#76b900" stroke-width="2"/>
    <rect x="82" y="185" width="21" height="35" rx="5" fill="#1a1a1a" stroke="#76b900" stroke-width="2"/>
    <!-- Left hand -->
    <rect x="85" y="220" width="15" height="18" rx="4" fill="#242424" stroke="#76b900" stroke-width="1"/>

    <!-- Right Arm -->
    <rect x="195" y="135" width="25" height="50" rx="6" fill="#1a1a1a" stroke="#76b900" stroke-width="2"/>
    <rect x="197" y="185" width="21" height="35" rx="5" fill="#1a1a1a" stroke="#76b900" stroke-width="2"/>
    <!-- Right hand -->
    <rect x="200" y="220" width="15" height="18" rx="4" fill="#242424" stroke="#76b900" stroke-width="1"/>

    <!-- Legs -->
    <rect x="115" y="220" width="28" height="55" rx="6" fill="#1a1a1a" stroke="#76b900" stroke-width="2"/>
    <rect x="157" y="220" width="28" height="55" rx="6" fill="#1a1a1a" stroke="#76b900" stroke-width="2"/>

    <!-- Feet -->
    <rect x="110" y="270" width="35" height="15" rx="4" fill="#242424" stroke="#76b900" stroke-width="2"/>
    <rect x="155" y="270" width="35" height="15" rx="4" fill="#242424" stroke="#76b900" stroke-width="2"/>
  </g>

  <!-- Neural Network / AI Brain connections around robot -->
  <g opacity="0.8">
    <!-- Nodes -->
    <circle cx="50" cy="100" r="5" fill="#76b900">
      <animate attributeName="opacity" values="0.5;1;0.5" dur="3s" repeatCount="indefinite"/>
    </circle>
    <circle cx="250" cy="100" r="5" fill="#76b900">
      <animate attributeName="opacity" values="1;0.5;1" dur="3s" repeatCount="indefinite"/>
    </circle>
    <circle cx="40" cy="180" r="4" fill="#76b900">
      <animate attributeName="opacity" values="0.7;1;0.7" dur="2s" repeatCount="indefinite"/>
    </circle>
    <circle cx="260" cy="180" r="4" fill="#76b900">
      <animate attributeName="opacity" values="1;0.7;1" dur="2s" repeatCount="indefinite"/>
    </circle>
    <circle cx="60" cy="250" r="4" fill="#76b900"/>
    <circle cx="240" cy="250" r="4" fill="#76b900"/>

    <!-- Connecting lines to robot -->
    <line x1="50" y1="100" x2="115" y2="90" stroke="#76b900" stroke-width="1" stroke-dasharray="4,2" opacity="0.6">
      <animate attributeName="stroke-dashoffset" values="0;6" dur="1s" repeatCount="indefinite"/>
    </line>
    <line x1="250" y1="100" x2="185" y2="90" stroke="#76b900" stroke-width="1" stroke-dasharray="4,2" opacity="0.6">
      <animate attributeName="stroke-dashoffset" values="0;6" dur="1s" repeatCount="indefinite"/>
    </line>
    <line x1="40" y1="180" x2="80" y2="160" stroke="#76b900" stroke-width="1" stroke-dasharray="4,2" opacity="0.5">
      <animate attributeName="stroke-dashoffset" values="0;6" dur="1.2s" repeatCount="indefinite"/>
    </line>
    <line x1="260" y1="180" x2="220" y2="160" stroke="#76b900" stroke-width="1" stroke-dasharray="4,2" opacity="0.5">
      <animate attributeName="stroke-dashoffset" values="0;6" dur="1.2s" repeatCount="indefinite"/>
    </line>
  </g>

  <!-- Tech labels -->
  <text x="35" y="70" fill="#76b900" font-family="monospace" font-size="10" opacity="0.8">ROS2</text>
  <text x="235" y="70" fill="#76b900" font-family="monospace" font-size="10" opacity="0.8">Isaac</text>
  <text x="25" y="210" fill="#76b900" font-family="monospace" font-size="10" opacity="0.8">Gazebo</text>
  <text x="245" y="210" fill="#76b900" font-family="monospace" font-size="10" opacity="0.8">VLA</text>
</svg>